<svg width="101" height="100" viewBox="0 0 101 100" fill="none" xmlns="http://www.w3.org/2000/svg">
  <g clip-path="url(#clip0_2_2516)">
    <g clip-path="url(#clip1_2_2516)">
      <rect x="-0.894749" y="63.3481" width="75" height="75" rx="10" transform="rotate(-60 -0.894749 63.3481)"
        fill="white" fill-opacity="0.43" />
    </g>
    <g clip-path="url(#clip2_2_2516)">
      <rect x="1.5" y="46" width="70" height="70" rx="10" transform="rotate(-40 1.5 46)" fill="white"
        fill-opacity="0.75" />
    </g>
    <g clip-path="url(#clip3_2_2516)">
      <rect x="8.49999" y="30" width="65" height="65" rx="10" transform="rotate(-20 8.49999 30)" fill="white"
        fill-opacity="0.9" />
      <path
        d="M65.7843 41.9479C67.6584 45.8624 68.011 50.3337 66.7738 54.4936C65.5365 58.6536 62.7976 62.2053 59.0888 64.4594C55.38 66.7134 50.966 67.5089 46.7037 66.6914C42.4413 65.8739 38.6348 63.5018 36.0232 60.0355C33.4115 56.5692 32.1811 52.2561 32.5707 47.9336C32.9603 43.6111 34.9422 39.5876 38.1316 36.6443C41.321 33.7009 45.4904 32.0476 49.8302 32.0055C54.17 31.9634 58.3706 33.5354 61.6166 36.4164L65.7321 32.3009C65.925 32.1081 66.1866 31.9999 66.4593 32C66.7321 32.0001 66.9936 32.1085 67.1864 32.3013C67.3792 32.4942 67.4876 32.7557 67.4877 33.0284C67.4877 33.3012 67.3795 33.5627 67.1867 33.7557L56.5469 44.3955L56.5467 44.3958L56.5464 44.396L50.7274 50.215C50.5344 50.4077 50.2729 50.516 50.0001 50.5159C49.7274 50.5158 49.4659 50.4074 49.2731 50.2145C49.0802 50.0217 48.9719 49.7601 48.9718 49.4874C48.9718 49.2147 49.08 48.9531 49.2727 48.7602L54.3118 43.7211C52.9989 42.7398 51.3905 42.2358 49.7524 42.2924C48.1143 42.349 46.5446 42.9629 45.3026 44.0326C44.0607 45.1022 43.2208 46.5636 42.922 48.1752C42.6231 49.7868 42.8831 51.4522 43.6589 52.896C44.4348 54.3399 45.68 55.4758 47.1889 56.116C48.6978 56.7562 50.38 56.8624 51.9574 56.4171C53.5348 55.9718 54.9131 55.0015 55.8644 53.6667C56.8157 52.3319 57.2831 50.7125 57.1893 49.0761C57.1815 48.9411 57.2003 48.806 57.2448 48.6783C57.2892 48.5506 57.3584 48.4329 57.4484 48.332C57.5383 48.2311 57.6473 48.1489 57.769 48.0901C57.8908 48.0313 58.0229 47.9971 58.1579 47.9894C58.2929 47.9818 58.4281 48.0008 58.5557 48.0454C58.6833 48.09 58.8009 48.1593 58.9017 48.2494C59.0025 48.3395 59.0846 48.4486 59.1432 48.5704C59.2018 48.6922 59.2359 48.8244 59.2434 48.9594C59.3648 51.0766 58.7558 53.1713 57.5181 54.8933C56.2805 56.6154 54.4892 57.8604 52.4438 58.4202C50.3984 58.9801 48.2228 58.8209 46.2807 57.9692C44.3386 57.1175 42.7477 55.6249 41.7739 53.741C40.8002 51.8571 40.5027 49.6961 40.931 47.6191C41.3594 45.5422 42.4878 43.6752 44.1275 42.3304C45.7671 40.9855 47.8188 40.2443 49.9394 40.2305C52.06 40.2168 54.1211 40.9314 55.778 42.2549L60.1571 37.8758C57.2814 35.3682 53.5776 34.0168 49.7628 34.0831C45.9479 34.1495 42.2933 35.6288 39.5066 38.2349C36.7198 40.8409 34.999 44.3883 34.6774 48.1901C34.3558 51.992 35.4562 55.778 37.7657 58.8151C40.0751 61.8522 43.4292 63.9245 47.1787 64.6307C50.9282 65.3369 54.8064 64.6269 58.0625 62.638C61.3185 60.6491 63.7209 57.5229 64.8044 53.8645C65.8879 50.2062 65.5756 46.2759 63.9278 42.8346C63.8696 42.7127 63.8359 42.5806 63.8288 42.4457C63.8217 42.3108 63.8412 42.1758 63.8862 42.0484C63.9312 41.921 64.0009 41.8038 64.0912 41.7034C64.1816 41.6029 64.2908 41.5213 64.4127 41.463C64.5346 41.4048 64.6668 41.3712 64.8017 41.364C64.9366 41.3569 65.0716 41.3764 65.1989 41.4214C65.3263 41.4664 65.4435 41.5361 65.544 41.6264C65.6444 41.7168 65.7261 41.826 65.7843 41.9479Z"
        fill="black" />
    </g>
  </g>
  <defs>
    <clipPath id="clip0_2_2516">
      <rect width="100" height="100" fill="white" transform="translate(0.5)" />
    </clipPath>
    <clipPath id="clip1_2_2516">
      <rect width="75" height="75" fill="white" transform="translate(-0.894749 63.3481) rotate(-60)" />
    </clipPath>
    <clipPath id="clip2_2_2516">
      <rect width="70" height="70" fill="white" transform="translate(1.5 46) rotate(-40)" />
    </clipPath>
    <clipPath id="clip3_2_2516">
      <rect width="65" height="65" fill="white" transform="translate(8.49999 30) rotate(-20)" />
    </clipPath>
  </defs>
</svg>