<svg width="24" height="24" viewBox="0 0 24 24" fill="none" xmlns="http://www.w3.org/2000/svg">
<path d="M24.0001 12C24.0001 12.1313 23.9742 12.2614 23.9239 12.3827C23.8737 12.504 23.8 12.6143 23.7072 12.7071C23.6143 12.8 23.5041 12.8736 23.3827 12.9239C23.2614 12.9741 23.1314 13 23.0001 13H13.0001V23C13.0001 23.2652 12.8947 23.5196 12.7072 23.7071C12.5196 23.8946 12.2653 24 12.0001 24C11.7348 24 11.4805 23.8946 11.293 23.7071C11.1054 23.5196 11.0001 23.2652 11.0001 23V13H1.00006C0.734845 13 0.480491 12.8946 0.292954 12.7071C0.105418 12.5196 6.10352e-05 12.2652 6.10352e-05 12C6.10352e-05 11.7348 0.105418 11.4804 0.292954 11.2929C0.480491 11.1054 0.734845 11 1.00006 11H11.0001V1C11.0001 0.734784 11.1054 0.48043 11.293 0.292893C11.4805 0.105357 11.7348 0 12.0001 0C12.2653 0 12.5196 0.105357 12.7072 0.292893C12.8947 0.48043 13.0001 0.734784 13.0001 1V11H23.0001C23.1314 11 23.2614 11.0259 23.3827 11.0761C23.5041 11.1264 23.6143 11.2 23.7072 11.2929C23.8 11.3857 23.8737 11.496 23.9239 11.6173C23.9742 11.7386 24.0001 11.8687 24.0001 12Z" fill="white"/>
</svg>
