<svg width="70" height="70" viewBox="0 0 70 70" fill="none" xmlns="http://www.w3.org/2000/svg">
<g filter="url(#filter0_d_2_2527)">
<circle cx="35" cy="31" r="31" fill="#1AB8DB"/>
</g>
<path d="M47 31C47 31.1313 46.9741 31.2614 46.9239 31.3827C46.8736 31.504 46.8 31.6143 46.7071 31.7071C46.6143 31.8 46.504 31.8736 46.3827 31.9239C46.2614 31.9741 46.1313 32 46 32H36V42C36 42.2652 35.8946 42.5196 35.7071 42.7071C35.5196 42.8946 35.2652 43 35 43C34.7348 43 34.4804 42.8946 34.2929 42.7071C34.1054 42.5196 34 42.2652 34 42V32H24C23.7348 32 23.4804 31.8946 23.2929 31.7071C23.1054 31.5196 23 31.2652 23 31C23 30.7348 23.1054 30.4804 23.2929 30.2929C23.4804 30.1054 23.7348 30 24 30H34V20C34 19.7348 34.1054 19.4804 34.2929 19.2929C34.4804 19.1054 34.7348 19 35 19C35.2652 19 35.5196 19.1054 35.7071 19.2929C35.8946 19.4804 36 19.7348 36 20V30H46C46.1313 30 46.2614 30.0259 46.3827 30.0761C46.504 30.1264 46.6143 30.2 46.7071 30.2929C46.8 30.3857 46.8736 30.496 46.9239 30.6173C46.9741 30.7386 47 30.8687 47 31Z" fill="white"/>
<defs>
<filter id="filter0_d_2_2527" x="0" y="0" width="70" height="70" filterUnits="userSpaceOnUse" color-interpolation-filters="sRGB">
<feFlood flood-opacity="0" result="BackgroundImageFix"/>
<feColorMatrix in="SourceAlpha" type="matrix" values="0 0 0 0 0 0 0 0 0 0 0 0 0 0 0 0 0 0 127 0" result="hardAlpha"/>
<feOffset dy="4"/>
<feGaussianBlur stdDeviation="2"/>
<feComposite in2="hardAlpha" operator="out"/>
<feColorMatrix type="matrix" values="0 0 0 0 0 0 0 0 0 0 0 0 0 0 0 0 0 0 0.25 0"/>
<feBlend mode="normal" in2="BackgroundImageFix" result="effect1_dropShadow_2_2527"/>
<feBlend mode="normal" in="SourceGraphic" in2="effect1_dropShadow_2_2527" result="shape"/>
</filter>
</defs>
</svg>
